/* XPM */
static char *result[] = {
/* columns rows colors chars-per-pixel */
"64 64 86 1 ",
"  c #2A2A2A",
". c #343435",
"X c #343535",
"o c #353536",
"O c gray21",
"+ c #373737",
"@ c #444444",
"# c #494A4B",
"$ c #4B4C4C",
"% c #4E4E4F",
"& c #515151",
"* c gray32",
"= c #535556",
"- c #555757",
"; c #5F5F5F",
": c #686969",
"> c #6C6C6C",
", c #6C6E6F",
"< c #757677",
"1 c #797979",
"2 c gray48",
"3 c #7E8183",
"4 c #848585",
"5 c gray53",
"6 c #888B8E",
"7 c gray58",
"8 c #959595",
"9 c #929698",
"0 c #9DA1A4",
"q c gray63",
"w c #A2A2A2",
"e c #A7ACAF",
"r c #AFAFAF",
"t c #A9ADB0",
"y c #B2B7BB",
"u c #B6BBBF",
"i c #BCBCBC",
"p c gray74",
"a c #BBC0C3",
"s c #BDC2C5",
"d c #C0C4C7",
"f c #C5C9CC",
"g c #C8C8C8",
"h c gray79",
"j c #CACACA",
"k c #CACDD0",
"l c #CED2D4",
"z c #D7D7D7",
"x c #D3D6D8",
"c c #D0D6DA",
"v c #D0D7DA",
"b c #D0D6DB",
"n c #D1D6DB",
"m c #D0D7DB",
"M c #D1D7DB",
"N c #D3D9DD",
"B c #D6DCDF",
"V c #D8DBDD",
"C c #DADCDD",
"Z c #D9DEE1",
"A c #DDDFE1",
"S c #DCE1E4",
"D c #DFE3E6",
"F c #E2E4E5",
"G c #E4E4E4",
"H c gray90",
"J c #E2E6E8",
"K c #E6E8E9",
"L c #E5E8EA",
"P c #EAEAEB",
"I c #E8EBED",
"U c #EBEDEE",
"Y c #EAEDEF",
"T c #EDF0F1",
"R c #F1F1F1",
"E c #F0F1F2",
"W c #F0F2F3",
"Q c gray95",
"! c #F3F5F6",
"~ c #F5F6F6",
"^ c #F6F7F8",
"/ c #F9FAFA",
"( c gray98",
") c gray99",
"_ c white",
"` c None",
/* pixels */
"````````````````````````````````````````````````````````````````",
"`vmmmmv`vmmmMMMMMMMMMMmmmmmmbMMMMMMMMMMMMMMMMMvbvmmvMMMMMMMMMMv`",
"`MMMMMMMMMMMMMMNSSSMMMMMMMMMMBSNMMMMDIIDMMMMMMMMMMMMMMMMMSSZMMM`",
"`MM!!!IIIY!MM________MM!!!!!/__JMD_______MM___!IIY!LMD_______MM`",
"`cM!______!MZ________MM________IMS_______MM________/MN_______MM`",
"`mM!______!MS________MM________IMD_______BM^________MM_______MM`",
"`mMT______^MN________MM________LMI_______SMT________MM_______MM`",
"``MS_______MM________NM________DMI_______IMI_______^MZ_______MM`",
"``MS_______MM________ZM!_______IMI_______LMI_______TMD_______MM`",
"``MJ_______MM________MM________IMI_______ZMT_______SMT_______MM`",
"``MI_______MM________MM________TMS______/MM/______)MM)_______MM`",
"`vMY_______MM________MM________!MS______WMZ_______!MZ________MM`",
"`mM!______!MS________MM________!MS______IMJ_______!MS________MM`",
"`mM!______!MS________ZM!_______WMS______DMI_______!MS________MM`",
"`mM!______!MS________DMY_______JMI______SM!_______!MZ________MM`",
"`mM!______!MS________IML_______SMW______SM!_______^MM________MM`",
"`mM!______TMS________!MS_____jjtegjjj___ZM!________MM_______)MM`",
"`mM!______IMI________!MSjw>@         >rHMM^_______!MM_______YMm`",
"`mM!______IMI________T3o     @;;;;@     $6P_______!MS_______IM``",
"`mMT______!MS________%  @>qh________Gq;   Oz______!MS_______YM``",
"`mMI______!MS_____/!< +r_______________Rr> +Q_____!MS_______!Mm`",
"`vMI______)MMSSSSSN3  r___________________> 8______MMMMMBSSBMMv`",
"``MI_______MMMMMMMsX ;____________________i @______MMMMMMMMMMMM`",
"``MS_______MM!!!!!4 +G_____UAkfffffAU______& p_____MM___/!!!_SM`",
"``MS_______MM_____@ 7___(fyyyyyyyyyyyf~____i ;_____ZM!_______SM`",
"``MS_______MM____H  G___dyyakAUUUUAlayuA____& j____DMT_______SM`",
"``MS_______MM____w ;___VyuU__________VyyV___h ;____IMI_______SM`",
"``MS_______NM____; r___uyU____________Kyy(___> z___IMI_______ZM`",
"``MJ_______ZM!___@ R__~yy______________uyK___7 5___IMI_______MM`",
"`bMY_______MM___z >___Kyf______________lyx___h ;___ZMW_______MM`",
"`MM/_______MM___; i___Vyx______________Fyf___z @__WMM)_______MM`",
"`MM________MM__z @____kyA______________Eyy____  __JMS_______)Mb`",
"`MM________MM__r 1____dyE_______________yy____+ z_SMI_______^Mc`",
"`MM________ZM!_8 7____ay________________yy____; j_SMI________MM`",
"`MM________DMY_8 5____kyK_____________(kyf___z  z_LML________MM`",
"`bM________IML_p &____Uyd____________(dyuE__z+ ;__!MS________MM`",
"`cM!_______!MS_Q  G____kyl___________dyuE___& *Q__)MM________MM`",
"`MM________!MS__> 5____(dykK________VyyE___i +H____MM________MM`",
"`MM________TMJ__j +R____~uyydU_____~uyF____1 2_____MM________MM`",
"`MM________IMI___> 5_____~fyyyA___~dyf_____; p_____MM________MM`",
"`MM__!!!/__SMW___Q* q______Elyyyyyyyu~_____@ C!!!!!MM________ZM`",
"`MMMMMMMMMMMM/____z+ ;z______~Vayyyk(_____h #MMMMMMMM________SM`",
"`MMMMBSSBMMMM^_____Q; +q_________________i+ 0ZSSSSSNM^_______SM`",
"`bM)_______ZMT_______9. ;z____________Gi&  r_______SM!_______DM`",
"`mM!_______SMI_______Ms@ @i________z5@   ,s!_______SM!_______LM`",
"`mM!_______IMI_______MMQ@  @>7hhhq1    >jDMT_______SM!_______SM`",
"`mM!_______IMI_______MM_Q5          >r___IMI_______SM!_______SM`",
"`mM!_______IMI_______MM____jw2;-=:8p_____IMI_______ZM^_______SM`",
"`mM!_______SM!_______MM________MM________IMI_______MM________MM`",
"`mMW_______SM!_______MM________MM________ZMW_______MM________MM`",
"`nML_______SM!_______MM________MM_______WMM)_______MM________MM`",
"``MS_______SM!_______MM________MM_______JMS_______)MN________MM`",
"``MS_______SM!_______MM________ZM_______SMI_______^MZ________MM`",
"``MJ_______SM!_______MM________SM)______SMI________MM________MM`",
"`nMI_______SMT_______MM________DMT______LML________MM________MM`",
"`bMI_______LMI_______MM________YMD______!MS________MM________BM`",
"``MI_______JMI_______MM________/MN______)MM________MM________NM`",
"``MI_______NMT______^MN_________MM_______MM________MM________MM`",
"``MD_______MM)______!MS________^MZ_______MM________MM________MM`",
"``MS_______MM_______!MS________YML_______MM________MM________MM`",
"``ML_______MM/!W!!!_/MB________DMY_______MM________MM__!!!!!_MM`",
"`vMBSSSSMMMMMMMMMMMMMMMSSSSSMMMMMMMMMMZSSMMSSSSZMMMMMMMMMMMMMMM`",
"`cMMMMMMMMMMMMmmmmmMMMMMMMMMMMMMMMMMMMMMMMMMMMMMMMMMMMMvmmmmMMb`",
"````````````````````````````````````````````````````````````````"
};
