/* XPM */
static char *result[] = {
/* columns rows colors chars-per-pixel */
"64 64 23 1 ",
"  c #D0D6DA",
". c #D0D7DA",
"X c #D0D6DB",
"o c #D1D6DB",
"O c #D0D7DB",
"+ c #D1D7DB",
"@ c #D3D9DD",
"# c #D6DCDF",
"$ c #D9DEE1",
"% c #DCE1E4",
"& c #DFE3E6",
"* c #E2E6E8",
"= c #E5E8EA",
"- c #E8EBED",
"; c #EAEDEF",
": c #EDF0F1",
"> c #F0F2F3",
", c #F3F5F6",
"< c #F6F7F8",
"1 c #F9FAFA",
"2 c gray99",
"3 c white",
"4 c None",
/* pixels */
"4444444444444444444444444444444444444444444444444444444444444444",
"4.OOOO.4.OOO++++++++++OOOOOOX+++++++++++++++++.X.OO.++++++++++.4",
"4++++++++++++++@%%%++++++++++#%@++++&--&+++++++++++++++++%%$+++4",
"4++,,,---;,++33333333++,,,,,133*+&3333333++333,--;,=+&3333333++4",
"4 +,333333,+$33333333++33333333-+%3333333++333333331+@3333333++4",
"4O+,333333,+%33333333++33333333-+&3333333#+<33333333++3333333++4",
"4O+:333333<+@33333333++33333333=+-3333333%+:33333333++3333333++4",
"44+%3333333++33333333@+33333333&+-3333333-+-3333333<+$3333333++4",
"44+%3333333++33333333$+,3333333-+-3333333=+-3333333:+&3333333++4",
"44+*3333333++33333333++33333333-+-3333333$+:3333333%+:3333333++4",
"44+-3333333++33333333++33333333:+%3333331++13333332++23333333++4",
"4.+;3333333++33333333++33333333,+%333333>+$3333333,+$33333333++4",
"4O+,333333,+%33333333++33333333,+%333333-+*3333333,+%33333333++4",
"4O+,333333,+%33333333$+,3333333>+%333333&+-3333333,+%33333333++4",
"4O+,333333,+%33333333&+;3333333*+-333333%+,3333333,+$33333333++4",
"4O+,333333,+%33333333-+=3333333%+>333333%+,3333333<++33333333++4",
"4O+,333333:+%33333333,+%3333333@+2333333$+,33333333++33333332++4",
"4O+,333333-+-33333333,+%3333333@+<333333++<3333333,++3333333;+O4",
"4O+,333333-+-33333333:+*3333333++3333333$+<3333333,+%3333333-+44",
"4O+:333333,+%33333333-+-3333333++3333333*+:3333333,+%3333333;+44",
"4O+-333333,+%333331,,%+>3333333++3333333;+*3333333,+%3333333,+O4",
"4.+-3333332++%%%%%@++++13333333++%%%%%%%$+@33333333+++++#%%#++.4",
"44+-3333333++++++++#%++<3333333++++++++++++13333333++++++++++++4",
"44+%3333333++,,,,,133$+:3333333++,,,,,,,,$+,3333333++3331,,,3%+4",
"44+%3333333++33333333%+-3333333++33333333%+,3333333$+,3333333%+4",
"44+%3333333++33333333-+-3333333++33333333%+,3333333&+:3333333%+4",
"44+%3333333++33333333-+-3333333++33333333%+,3333333-+-3333333%+4",
"44+%3333333@+33333333-+-3333333++33333333$+,3333333-+-3333333$+4",
"44+*3333333$+,3333333%+,3333333++33333333++33333333-+-3333333++4",
"4X+;3333333++33333333%+,3333333++33333333++33333333$+>3333333++4",
"4++13333333++33333333%+,3333333++33333333++3333333>++23333333++4",
"4++33333333++33333333%+,3333333++33333333++3333333*+%33333332+X4",
"4++33333333++33333333%+,3333333++33333333$+3333333%+-3333333<+ 4",
"4++33333333$+,3333333%+,3333333++33333333%+2333333%+-33333333++4",
"4++33333333&+;3333333%+:3333333++33333333&+:333333=+=33333333++4",
"4X+33333333-+=3333333=+-3333333++33333333;+&333333,+%33333333++4",
"4 +,3333333,+%3333333*+-3333333++333333331+@3333332++33333333++4",
"4++33333333,+%3333333@+:333333<+@333333333++3333333++33333333++4",
"4++33333333:+*3333333++2333333,+%33333333<+$3333333++33333333++4",
"4++33333333-+-3333333++3333333,+%33333333;+=3333333++33333333++4",
"4++33,,,133%+>3333333++32333331+#33333333&+;<,,,,,,++33333333$+4",
"4++++++++++++13333333++++++++++++33333333@+++++++++++33333333%+4",
"4++++#%%#++++<3333333++++++++++++13333333++++$%%%%%@+<3333333%+4",
"4X+23333333$+:3333333++33333333%+,3333333++33333333%+,3333333&+4",
"4O+,3333333%+-3333333++33333333%+,3333333$+,3333333%+,3333333=+4",
"4O+,3333333-+-3333333++33333333%+,3333333&+:3333333%+,3333333%+4",
"4O+,3333333-+-3333333++33333333%+,3333333-+-3333333%+,3333333%+4",
"4O+,3333333-+-3333333++33333333$+,3333333-+-3333333$+<3333333%+4",
"4O+,3333333%+,3333333++33333333++33333333-+-3333333++33333333++4",
"4O+>3333333%+,3333333++33333333++33333333$+>3333333++33333333++4",
"4o+=3333333%+,3333333++33333333++3333333>++23333333++33333333++4",
"44+%3333333%+,3333333++33333333++3333333*+%33333332+@33333333++4",
"44+%3333333%+,3333333++33333333$+3333333%+-3333333<+$33333333++4",
"44+*3333333%+,3333333++33333333%+2333333%+-33333333++33333333++4",
"4o+-3333333%+:3333333++33333333&+:333333=+=33333333++33333333++4",
"4X+-3333333=+-3333333++33333333;+&333333,+%33333333++33333333#+4",
"44+-3333333*+-3333333++333333331+@3333332++33333333++33333333@+4",
"44+-3333333@+:333333<+@333333333++3333333++33333333++33333333++4",
"44+&3333333++2333333,+%33333333<+$3333333++33333333++33333333++4",
"44+%3333333++3333333,+%33333333;+=3333333++33333333++33333333++4",
"44+=3333333++1,>,,,31+#33333333&+;3333333++33333333++33,,,,,3++4",
"4.+#%%%%+++++++++++++++%%%%%++++++++++$%%++%%%%$+++++++++++++++4",
"4 ++++++++++++OOOOO++++++++++++++++++++++++++++++++++++.OOOO++X4",
"4444444444444444444444444444444444444444444444444444444444444444"
};
