/* XPM */
static char *result[] = {
/* columns rows colors chars-per-pixel */
"64 64 35 1 ",
"  c gray16",
". c #2A2A2A",
"X c #373737",
"o c #444444",
"O c #515151",
"+ c #5F5F5F",
"@ c #6C6C6C",
"# c #797979",
"$ c gray53",
"% c gray58",
"& c gray63",
"* c #AFAFAF",
"= c #B2B7BB",
"- c #B6BBBF",
"; c #BCBCBC",
": c #BBC0C3",
"> c #C0C4C7",
", c #C5C9CC",
"< c gray79",
"1 c #CACDD0",
"2 c #CED2D4",
"3 c #D7D7D7",
"4 c #D3D6D8",
"5 c #D8DBDD",
"6 c #DDDFE1",
"7 c #E2E4E5",
"8 c #E4E4E4",
"9 c #E6E8E9",
"0 c #EBEDEE",
"q c #F1F1F1",
"w c #F0F1F2",
"e c #F5F6F6",
"r c gray98",
"t c white",
"y c None",
/* pixels */
"yyyyyyyyyyyyyyyyyyyyyyyyyyyyyyyyyyyyyyyyyyyyyyyyyyyyyyyyyyyyyyyy",
"y.            .....................  yyyyy   .............   ..y",
"y................................................o+++++........y",
"y..<<<<<<<<<<<tttttttttttttttttttt3<&%%%%%<<<3tttttttttt<<<<<..y",
"y..tttttttttttttttttttttttttttttttttttttttttttttttttttttttttt..y",
"y.Xtttttttttttttttttttttttttttttttttttttttttttttttttttttttttt..y",
"y.+tttttttttttttttttttttttttttttttttttttttttttttttttttttttttt..y",
"..%tttttttttttttttttttttttttttttttttttttttttttttttttttttttttt..y",
" .<tttttr6555555555555555555555555555552,,,,,5ettr95555tttttt..y",
" .;ttttt5==============================================6ttttt..y",
" .#ttttt9==5555555555555555555555555555500000,====>45,=5ttttt..y",
"y.+tttttt:=9ttttttttttttttttttttttttttttttttttttttttt5=5ttttt..y",
"y.+tttttt2=6ttttttttttttttttttttttttttttttttttttttttt5=5ttttt..y",
"y.+tttttt1=0ttttttttttttttttttttttttttttttttttttttttt5=5ttttt..y",
"y.+tttttt,=0tttttttttttttttttttttttttttttttttw-19tt95>=5ttttt..y",
"y.+tttttt,=0ttttttttttttttttttttttttttttttttt5=========2ttttt..y",
"y.$tttttt:=ettttttttttttttttttttttttttttttttt5=:===152=,ttttt..y",
"y.@tttttt==tttttttttttttttttttttttttttttttttt5=5tttttw=-tttt<. y",
"y.+tttttt==tttttttttttttttttttttttttttttttttt5=5tttttt==tttt;. y",
"y..tttttt==tttttttttttttttttttttttttttttttttt5=5tttttt==tttt%.yy",
"y..3ttttw==tttttttttttttttttttttttttttttttttt5=5tttttt=-tttt@.yy",
"y .&ttttr==tttttttttttttttttttttttttttttttttt5=5ttttt0=,tttt+.yy",
"yy.%ttttt==tttttttttttttttttttttttttttttttttt5=========2tttt+.yy",
"yy.%ttttt==tttttttttttttttttttttttttttttttttt9=========5tttt+.yy",
"yy.%ttttt==ttw1,,6rtttttttttttttttttttttttttttttttttt1=6tttt#.yy",
"yy.%tttt0=:e2=====:ettttttttttttttttttttttttttttttttt,=0tttt%.yy",
"y..%tttt>=:-==151-=-rtttttttttttttttttttttttttttttttt,=6tttt%.yy",
"y .<ttte===-4etttw:=>rttttttttttttttttttttttttttttttt4=5tttt&..y",
"y .<ttt0==,rtttrttw:=5ttttttttttttttttttttttttttttttt5=1tttt<. y",
"y .<tttw==rtt4-===10=-rtttttttttttttttttttttttttttttt0=:tttt8..y",
"y .<tttt==tt6==-==-r5=2ttttttttttttttttttttttttttttttt==ttttt..y",
"y..<tttt==tt1=2tt5=2r>=wtttttttttttttttttttttttttttttt,=0tttto.y",
"y..qtttt==rt,=500,=,t6=5tttttttttttttttttttttttttttttt==ttttt+.y",
"y.Xttttt,=5t1======9t2=6ttttttttttttttttttttttttttttt0=:ttttt#.y",
"..#ttttt9==ee1,,,19t2=-rttttttttttttttttttttttttttttt5=1ttttt%.y",
" .;ttttt7==5ttttttr>=-wtttttttttttttttttttttttttttttt1=5ttttt%.y",
" .<ttttt5==-rttttw-=4rttttttttttttttttttttttttttttttt,=5ttttt%.y",
" .<ttttt5===,rtt0==7ttttttttttttttttttttttttttttttttt,=0ttttt@.y",
" .&ttttt5=,=======7tttttttttttttttttttttttttttttttttt2=7ttttt+.y",
"y.#ttttt5=50:====6tttttttttttttttttttttttttttte0000002=4ttttt+.y",
"y.Ottttt9=1ttr00wttttttttttttttttttttttttttttw-========>ttttt..y",
"y..ttttt6=4tttttttttttttttttttttttttttttttttt5=:,,,,,:==rtttt..y",
"y..3tttt5=5tttttttttttttttttttttttttttttttttt5=5ttttt5==0tttt..y",
"y .<tttt5=5tttttttttttttttttttttttttttttttttt5=5ttttt6==0tttt..y",
"y .<tttt5=5tttttttttttttttttttttttttttttttttt5=5ttttt0==rtttt..y",
"y .<tttt5=5tttttttttttttttttttttttttttttttttt5=5ttttt0=,ttttt..y",
"y .<tttt5=5tttttttttttttttttttttttttttttttttt5=5ttttt0=,ttttt..y",
"y .<tttt5=5tttttttttttttttttttttttttttttttttt5=5tttrt9=1ttttt..y",
"y .<tttt5=5tttttttttttttttttttttttttttttttttt5=========5tttt3..y",
"y .;tttt5=5tttttttttttttttttttttttttttttttttt9-===-====6tttt<. y",
"y .$tttt5=5tttttttttttttttttttttttttttttttttttttttttt:=0tttt<. y",
"yy.+tttt5=5tttttttttttttttttttttttttttttttttttttttttt2=5tttt;. y",
"yy.+tttt5=5ttttttttttte0000tttttttttttttttttttttttttt7=,tttt%.yy",
"yy.#tttt5=2000952,-============:,,,,,,1555555550000005=,tttt%.yy",
"y .%tttt5=============:,,,,============================5tttt%.yy",
"y .%ttttw,,,,,1557wttttttttttte0000000955555555,,,,,,,1ttttt%.yy",
"yy.%tttttttttttttttttttttttttttttttttttttttttttttttttttttttt*. y",
"yy.%ttttttttttttttttttttttttttttttttttttttttttttttttttttttttq..y",
"yy.@ttttttttttttttttttttttttttttttttttttttttttttttttttttttttt..y",
"yy.+ttttttttttttttttttttttttttttttttttttttttttttttttttttttttt..y",
"yy.$tttttqtttttttttttttttttttttttttttttttttttttttttttt<<<<<<t..y",
"y .o++o....X++%%<<<<<<&%%%++++++++............o+++++...........y",
"y....... .............................................      ...y",
"yyyyyyyyyyyyyy.        yyyyyyyyyyyyyyyyyyyyyyyyyyyyyyyyyyyyyyyyy"
};
