/* XPM */
static char *result[] = {
/* columns rows colors chars-per-pixel */
"64 64 98 2 ",
"   c #2A2A2A",
".  c #343435",
"X  c #353535",
"o  c gray21",
"O  c #373737",
"+  c #3E3F3F",
"@  c #404041",
"#  c #444444",
"$  c #494A4B",
"%  c #4C4D4D",
"&  c #515151",
"*  c gray32",
"=  c #535556",
"-  c #565758",
";  c #5C5C5D",
":  c #5F5F5F",
">  c #5E5F61",
",  c #616364",
"<  c #656666",
"1  c #696B6C",
"2  c #6C6C6C",
"3  c #737577",
"4  c #797979",
"5  c gray48",
"6  c #7E8183",
"7  c #828486",
"8  c gray53",
"9  c #888B8E",
"0  c #929292",
"q  c gray58",
"w  c #959595",
"e  c #929698",
"r  c #979A9C",
"t  c #999C9E",
"y  c gray63",
"u  c #A2A2A2",
"i  c #A6A7A7",
"p  c #A7A9A9",
"a  c #A5A8AA",
"s  c #A7ACAF",
"d  c #AFAFAF",
"f  c #B1B6BA",
"g  c #B2B7BB",
"h  c #B6BBBF",
"j  c #BCBCBC",
"k  c gray74",
"l  c #BBC0C3",
"z  c #BFC0C1",
"x  c #BDC2C5",
"c  c #C0C4C7",
"v  c #C4C8CB",
"b  c #C5C9CC",
"n  c gray79",
"m  c #CACACA",
"M  c #C7CCD0",
"N  c #CACDD0",
"B  c #CCCFD1",
"V  c #CED2D4",
"C  c #D7D7D7",
"Z  c #D3D6D8",
"A  c #D0D6DA",
"S  c #D0D7DA",
"D  c #D0D6DB",
"F  c #D1D6DB",
"G  c #D0D7DB",
"H  c #D1D7DB",
"J  c #D3D9DD",
"K  c #D6DCDF",
"L  c #D8DBDD",
"P  c #D9DEE1",
"I  c #DCDFE1",
"U  c #DDDFE1",
"Y  c #DCE1E4",
"T  c #DFE3E6",
"R  c #E2E4E5",
"E  c #E4E4E4",
"W  c gray90",
"Q  c #E2E6E8",
"!  c #E6E8E9",
"~  c #E5E8EA",
"^  c #E7E9EA",
"/  c #E8EBED",
"(  c #EBEDEE",
")  c #EAEDEF",
"_  c #EFEFEF",
"`  c #EDF0F1",
"'  c #F1F1F1",
"]  c #F0F1F2",
"[  c #F0F2F3",
"{  c gray95",
"}  c #F3F5F6",
"|  c #F5F6F6",
" . c #F6F7F8",
".. c #F9FAFA",
"X. c gray98",
"o. c gray99",
"O. c white",
"+. c None",
/* pixels */
"+.+.+.+.+.+.+.+.+.+.+.+.+.+.+.+.+.+.+.+.+.+.+.+.+.+.+.+.+.+.+.+.+.+.+.+.+.+.+.+.+.+.+.+.+.+.+.+.+.+.+.+.+.+.+.+.+.+.+.+.+.+.+.+.",
"+.S G G G G S +.S G G G H H H H H H H H H H G G G G G G D H H H H H H H H H H H H H H H H H S D S G G S H H H H H H H H H H S +.",
"+.H H H H H H H H H H H H H H J Y Y Y H H H H H H H H H H K Y J H H H H T / / T H H H H H H H H H H H H H H H H H Y Y P H H H +.",
"+.H H } } } / / / ) } H H O.O.O.O.O.O.O.O.H H } } } } } ..O.O.Q H T O.O.O.O.O.O.O.H H O.O.O.} / / ) } ~ H T O.O.O.O.O.O.O.H H +.",
"+.A H } O.O.O.O.O.O.} H P O.O.O.O.O.O.O.O.H H O.O.O.O.O.O.O.O./ H Y O.O.O.O.O.O.O.H H O.O.O.O.O.O.O.O...H J O.O.O.O.O.O.O.H H +.",
"+.G H } O.O.O.O.O.O.} H Y O.O.O.O.O.O.O.O.H H O.O.O.O.O.O.O.O./ H T O.O.O.O.O.O.O.K H  .O.O.O.O.O.O.O.O.H H O.O.O.O.O.O.O.H H +.",
"+.G H ` O.O.O.O.O.O. .H J O.O.O.O.O.O.O.O.H H O.O.O.O.O.O.O.O.~ H / O.O.O.O.O.O.O.Y H ` O.O.O.O.O.O.O.O.H H O.O.O.O.O.O.O.H H +.",
"+.+.H Y O.O.O.O.O.O.O.H H O.O.O.O.O.O.O.O.J H O.O.O.O.O.O.O.O.T H / O.O.O.O.O.O.O./ H / O.O.O.O.O.O.O. .H P O.O.O.O.O.O.O.H H +.",
"+.+.H Y O.O.O.O.O.O.O.H H O.O.O.O.O.O.O.O.P H } O.O.O.O.O.O.O./ H / O.O.O.O.O.O.O.~ H / O.O.O.O.O.O.O.` H T O.O.O.O.O.O.O.H H +.",
"+.+.H Q O.O.O.O.O.O.O.H H O.O.O.O.O.O.O.O.H H O.O.O.O.O.O.O.O./ H / O.O.O.O.O.O.O.P H ` O.O.O.O.O.O.O.Y H ` O.O.O.O.O.O.O.H H +.",
"+.+.H / O.O.O.O.O.O.O.H H O.O.O.O.O.O.O.O.H H O.O.O.O.O.O.O.O.` H Y O.O.O.O.O.O...H H ..O.O.O.O.O.O.o.H H o.O.O.O.O.O.O.O.H H +.",
"+.S H ) O.O.O.O.O.O.O.H H O.O.O.O.O.O.O.O.H H O.O.O.O.W k w 2 ; = - w w m { O.O.[ H P O.O.O.O.O.O.O.} H P O.O.O.O.O.O.O.O.H H +.",
"+.G H } O.O.O.O.O.O.} H Y O.O.O.O.O.O.O.O.H H W d 2                       O 5 u I H Q O.O.O.O.O.O.O.} H Y O.O.O.O.O.O.O.O.H H +.",
"+.G H } O.O.O.O.O.O.} H Y O.O.O.O.O.O.O.O.v >         O : q j n n n q :         X 6 / O.O.O.O.O.O.O.} H Y O.O.O.O.O.O.O.O.H H +.",
"+.G H } O.O.O.O.O.O.} H Y O.O.O.O.O.O.O.k X     : y E O.O.O.O.O.O.O.O.O.O.n 8 O     ; W O.O.O.O.O.O.} H P O.O.O.O.O.O.O.O.H H +.",
"+.G H } O.O.O.O.O.O.} H Y O.O.O.O.O.{ 2     y O.O.O.O.O.O.O.O.O.O.O.O.O.O.O.O.O.d :   O u O.O.O.O.O. .H H O.O.O.O.O.O.O.O.H H +.",
"+.G H } O.O.O.O.O.O.` H Y O.O.O.O.O.:   & C O.O.O.O.O.O.L h g l V R ] O.O.O.O.O.O.O.y O   * k O.O.O.O.H H O.O.O.O.O.O.O.o.H H +.",
"+.G H } O.O.O.O.O.O./ H / O.O.O.O.5   # C O.O.O.O.O.( b g g g g g g g h b b U | O.O.O.E &     m O.O.} H H O.O.O.O.O.O.O.) H G +.",
"+.G H } O.O.O.O.O.O./ H / O.O.O.w   & ' O.O.O.O.R l g g c ! U g l b h g g g g l X.O.O.O.' 2   O W O.} H Y O.O.O.O.O.O.O./ H +.+.",
"+.G H ` O.O.O.O.O.O.} H Y O.{ 8   # ' O.O.O.R l g g l R O.O.( g b O.O.X.( U l g h ! O.O.O.O.4   : O.} H Y O.O.O.O.O.O.O.) H +.+.",
"+.G H / O.O.O.O.O.O.} H Y O.5     n O.O.O.c g g V ( O.O.O.O.( g c O.O.O.O.O.O.L g g b O.O.O.O.&   k } H Y O.O.O.O.O.O.O.} H G +.",
"+.S H / O.O.O.O.O.O.o.H H a     2 O.O.O.L g g ( O.O.O.O.O.O.O.g g O.O.O.O.O.O.O.] g g L O.O.O.n   O { H H H H H K Y Y K H H S +.",
"+.+.H / O.O.O.O.O.O.O.H H +   # ' O.O.V g g g L O.O.O.O.O.O.O.g g ( O.O.O.O.O.O.O.g g g | O.O.O.4   w H H H H H H H H H H H H +.",
"+.+.H Y O.O.O.O.O.O.O.H e     n O.O.R g h b g L O.O.O.O.O.O.O.l g ( O.O.O.O.O.O.O.g g g b O.O.O.n   O H H O.O.O...} } } O.Y H +.",
"+.+.H Y O.O.O.O.O.O.O.H >   # O.O.R g h ( V g U O.O.O.O.O.O.O.b g ( O.O.O.O.O.O.O.g g N g L O.O.O.&   r H } O.O.O.O.O.O.O.Y H +.",
"+.+.H Y O.O.O.O.O.O.O.H +   8 O.| h g Z O.l g ( O.O.O.O.O.O.O.b g ( O.O.O.O.O.O.O.g g | h g | O.O.j   % H ` O.O.O.O.O.O.O.Y H +.",
"+.+.H Y O.O.O.O.O.O.O.H     d O.U g l O.O.g g O.O.O.O.O.O.O.O.b g ( O.O.O.O.O.O.O.g g O.Z g Z O.O.O.&   s / O.O.O.O.O.O.O.Y H +.",
"+.+.H Y O.O.O.O.O.O.O.J =   n O.L g b O.O.g g O.O.O.O.O.O.O.O.l g ( O.O.O.O.O.O.] g c O.( g b O.O.O.j   > / O.O.O.O.O.O.O.P H +.",
"+.+.H Q O.O.O.O.O.O.O.P .   C O.| g g O.O.g g O.O.O.O.O.O.O.O.g g O.O.O.O.O.O.O.( g b O.( g c O.O.O.O.:   I O.O.O.O.O.O.O.H H +.",
"+.D H ) O.O.O.O.O.O.O.s   O O.O.O.g g O.O.g g O.O.O.O.O.O.O.( g l O.O.O.O.O.O.O.( g b O.O.g g O.O.O.O.8   z O.O.O.O.O.O.O.H H +.",
"+.H H ..O.O.O.O.O.O.O.=   4 O.O.O.g g O.O.c g ] O.O.O.O.O.O.L g V O.O.O.O.O.O.O.U g b O.O.g g X.O.O.E   . _ O.O.O.O.O.O.O.H H +.",
"+.H H O.O.O.O.O.O.O.O.    E O.O.( g c O.O.h g O.O.O.O.O.O.O.V g U O.O.O.O.O.O.O.! g b O.O.b g ( O.O.n   , O.O.O.O.O.O.O.o.H D +.",
"+.H H O.O.O.O.O.O.O.O.    O.O.O.L g V O.O.g g O.O.O.O.O.O.O.b g ( O.O.O.O.O.O.O.( g b O.O.V g U O.O.E O   C O.O.O.O.O.O. .H A +.",
"+.H H O.O.O.O.O.O.O.O.    O.O.O.L g L O.O.g g O.O.O.O.O.O.O.b g ( O.O.O.O.O.O.O.( g b O.O.L g L O.O.O.:   u O.O.O.O.O.O.O.H H +.",
"+.H H O.O.O.O.O.O.O.O.X   C O.O.( g b O.O.g g O.O.O.O.O.O.O.V g L O.O.O.O.O.O.O.X.g h O.O.N g U O.O.' O   m O.O.O.O.O.O.O.H H +.",
"+.D H O.O.O.O.O.O.O.O.<   y O.O.X.g g X.O.g g O.O.O.O.O.O.O.L g L O.O.O.O.O.O.O.O.g g O.X.g g ] O.O.&   @ O.O.O.O.O.O.O.O.H H +.",
"+.A H } O.O.O.O.O.O.O.p   & O.O.O.c g R O.g g O.O.O.O.O.O.O.R g b O.O.O.O.O.O.O.O.g g O.L g V O.O.d   . f O.O.O.O.O.O.O.O.H H +.",
"+.H H O.O.O.O.O.O.O.O.^     ' O.O.R g l O.g g O.O.O.O.O.O.O.( g b O.O.O.O.O.O.O.X.g g X.h g | O.O.:   6 H O.O.O.O.O.O.O.O.H H +.",
"+.H H O.O.O.O.O.O.O.O.` $   d O.O.X.g g R g c O.O.O.O.O.O.O.| g l O.O.O.O.O.O.O.( g h L g V O.O.O.O   x H O.O.O.O.O.O.O.O.H H +.",
"+.H H O.O.O.O.O.O.O.O./ 9   # O.O.O.N g l g g O.O.O.O.O.O.O.O.g g O.O.O.O.O.O.O.L g h g h | O.O.O.    H H O.O.O.O.O.O.O.O.H H +.",
"+.H H O.O.} } } ..O.O.Y M o   d O.O.( g g g g O.O.O.O.O.O.O.O.g g O.O.O.O.O.O.O.L g g g R O.O.O.E   o H H O.O.O.O.O.O.O.O.P H +.",
"+.H H H H H H H H H H H H 0   O ' O.O.b g g g O.O.O.O.O.O.O.O.g g O.O.O.O.O.O.O.L g g N O.O.O.O.d   = H H O.O.O.O.O.O.O.O.Y H +.",
"+.H H H H K Y Y K H H H H  .2   2 O.O.] h g g L X.O.O.O.O.O.O.g g O.O.O.O.O.O.O.! g g X.O.O.O.' #   t J H  .O.O.O.O.O.O.O.Y H +.",
"+.D H o.O.O.O.O.O.O.O.P H ` O.#   n O.O.] l g g h ! O.O.O.O.O.h g ] O.O.O.O.O.( l g b O.O.O.C #   # O.Y H } O.O.O.O.O.O.O.T H +.",
"+.G H } O.O.O.O.O.O.O.Y H / O.k   # O.O.O.| L h g g L X.O.O.O.b g ( O.O.O.X.V g g Z X.O.O.C O   # C O.Y H } O.O.O.O.O.O.O.~ H +.",
"+.G H } O.O.O.O.O.O.O./ H / O.O.*   j O.O.O.O.X.Z g g l R ( ( c g U ( ( R h g l ( O.O.O.d O   : { O.O.Y H } O.O.O.O.O.O.O.Y H +.",
"+.G H } O.O.O.O.O.O.O./ H / O.O.C   O E O.O.O.O.O.L h g g g g g g g g g g g N ] O.O.O.d     5 O.O.O.O.Y H } O.O.O.O.O.O.O.Y H +.",
"+.G H } O.O.O.O.O.O.O./ H / O.O.O.u   : E O.O.O.O.O.X.U b b b b b b b b L R O.O.O.O.j     5 O.O.O.O.O.P H  .O.O.O.O.O.O.O.Y H +.",
"+.G H } O.O.O.O.O.O.O.Y H } O.O.O.O.:   # C O.O.O.O.O.O.O.O.O.O.O.O.O.O.O.O.O.O.' q     5 O.O.O.O.O.O.H H O.O.O.O.O.O.O.O.H H +.",
"+.G H [ O.O.O.O.O.O.O.Y H } O.O.O.O.W O     4 j ' O.O.O.O.O.O.O.O.O.O.O.O.' j 8 O   + i O.O.O.O.O.O.O.H H O.O.O.O.O.O.O.O.H H +.",
"+.F H ~ O.O.O.O.O.O.O.Y H } O.O.O.O.O.{ 2             : : : : 8 q q q q :         1 M o.O.O.O.O.O.O.O.H H O.O.O.O.O.O.O.O.H H +.",
"+.+.H Y O.O.O.O.O.O.O.Y H } O.O.O.O.O.O.O.s 3 :                             * 8 B H Y O.O.O.O.O.O.O.o.H J O.O.O.O.O.O.O.O.H H +.",
"+.+.H Y O.O.O.O.O.O.O.Y H } O.O.O.O.O.O.O.H H O.O.O.O.m m m k 7 6 w w w d W O.O.Y H / O.O.O.O.O.O.O. .H P O.O.O.O.O.O.O.O.H H +.",
"+.+.H Q O.O.O.O.O.O.O.Y H } O.O.O.O.O.O.O.H H O.O.O.O.O.O.O.O.Y H o.O.O.O.O.O.O.Y H / O.O.O.O.O.O.O.O.H H O.O.O.O.O.O.O.O.H H +.",
"+.F H / O.O.O.O.O.O.O.Y H ` O.O.O.O.O.O.O.H H O.O.O.O.O.O.O.O.T H ` O.O.O.O.O.O.~ H ~ O.O.O.O.O.O.O.O.H H O.O.O.O.O.O.O.O.H H +.",
"+.D H / O.O.O.O.O.O.O.~ H / O.O.O.O.O.O.O.H H O.O.O.O.O.O.O.O.) H T O.O.O.O.O.O.} H Y O.O.O.O.O.O.O.O.H H O.O.O.O.O.O.O.O.K H +.",
"+.+.H / O.O.O.O.O.O.O.Q H / O.O.O.O.O.O.O.H H O.O.O.O.O.O.O.O...H J O.O.O.O.O.O.o.H H O.O.O.O.O.O.O.O.H H O.O.O.O.O.O.O.O.J H +.",
"+.+.H / O.O.O.O.O.O.O.J H ` O.O.O.O.O.O. .H J O.O.O.O.O.O.O.O.O.H H O.O.O.O.O.O.O.H H O.O.O.O.O.O.O.O.H H O.O.O.O.O.O.O.O.H H +.",
"+.+.H T O.O.O.O.O.O.O.H H o.O.O.O.O.O.O.} H Y O.O.O.O.O.O.O.O. .H P O.O.O.O.O.O.O.H H O.O.O.O.O.O.O.O.H H O.O.O.O.O.O.O.O.H H +.",
"+.+.H Y O.O.O.O.O.O.O.H H O.O.O.O.O.O.O.} H Y O.O.O.O.O.O.O.O.) H ~ O.O.O.O.O.O.O.H H O.O.O.O.O.O.O.O.H H O.O.O.O.O.O.O.O.H H +.",
"+.+.H ~ O.O.O.O.O.O.O.H H ..} [ } } } O...H K O.O.O.O.O.O.O.O.T H ) O.O.O.O.O.O.O.H H O.O.O.O.O.O.O.O.H H O.O.} } } } } O.H H +.",
"+.S H K Y Y Y Y H H H H H H H H H H H H H H H Y Y Y Y Y H H H H H H H H H H P Y Y H H Y Y Y Y P H H H H H H H H H H H H H H H +.",
"+.A H H H H H H H H H H H H G G G G G H H H H H H H H H H H H H H H H H H H H H H H H H H H H H H H H H H H H S G G G G H H D +.",
"+.+.+.+.+.+.+.+.+.+.+.+.+.+.+.+.+.+.+.+.+.+.+.+.+.+.+.+.+.+.+.+.+.+.+.+.+.+.+.+.+.+.+.+.+.+.+.+.+.+.+.+.+.+.+.+.+.+.+.+.+.+.+.+."
};
