/* XPM */
static char *result[] = {
/* columns rows colors chars-per-pixel */
"64 64 35 1 ",
"  c gray16",
". c #2A2A2A",
"X c #373737",
"o c #444444",
"O c #515151",
"+ c #5F5F5F",
"@ c #6C6C6C",
"# c #797979",
"$ c gray53",
"% c gray58",
"& c gray63",
"* c #AFAFAF",
"= c #B2B7BB",
"- c #B6BBBF",
"; c #BCBCBC",
": c #BBC0C3",
"> c #C0C4C7",
", c #C5C9CC",
"< c gray79",
"1 c #CACDD0",
"2 c #CED2D4",
"3 c #D7D7D7",
"4 c #D3D6D8",
"5 c #D8DBDD",
"6 c #DDDFE1",
"7 c #E2E4E5",
"8 c #E4E4E4",
"9 c #E6E8E9",
"0 c #EBEDEE",
"q c #F1F1F1",
"w c #F0F1F2",
"e c #F5F6F6",
"r c gray98",
"t c white",
"y c None",
/* pixels */
"yyyyyyyyyyyyyyyyyyyyyyyyyyyyyyyyyyyyyyyyyyyyyyyyyyyyyyyyyyyyyyyy",
"y.            .....................  yyyyy   .............   ..y",
"y................................................o+++++........y",
"y..<<<<<<<<<<<tttttttttttttttttttt3<&%%%%%<<<3tttttttttt<<<<<..y",
"y..tttttttttttttttttttttttttttttttttttttttttttttttttttttttttt..y",
"y.Xtttttttttttttttttttttttttttttttttttttttttttttttttttttttttt..y",
"y.+tttttttttttttttttttttttttttttttttttttttttttttttttttttttttt..y",
"..%tttttttttttttttttttttttttttttttttttttttttttttttttttttttttt..y",
" .<tttttttttttttttttttttttttttttttttttttttttttttttttttttttttt..y",
" .;tttttttttttttttttttttttttttttttttttttttttttttttttttttttttt..y",
" .#ttttttttttttttttrttttttttttttttttttttttttttttttttttttttttt..y",
"y.+tttttttt2:2555,========================:255,,,===2tttttttt..y",
"y.+tttttttt==========================================tttttttt..y",
"y.+tttttttt==1,,47ettttttttttttttttttt04=:5,,,600tt-=rttttttt..y",
"y.+tttttttt==tttttttttttttttttttttttr>==-wttttttttt>=wttttttt..y",
"y.+tttttttt==ttttttttttttttttttttttt,=-5rtttttttttt==tttttttt..y",
"y.$tttttttt==ttttttttttttttttttttttr==9tttttttttttt==tttttttt..y",
"y.@tttttttt==tttttttttttttttttttttt5=2ttttttttttttt==ttttttt<. y",
"y.+tttttttt==ttttttttttttttttttttt0=-ettttttttttttt==ttttttt;. y",
"y..tttttttt==tttttttttttttttttttt2==0tttttttttttttt-=ttttttt%.yy",
"y..3ttttttt==ttttttttttttttttttr1==9ttttttttttttttt,=ttttttt@.yy",
"y .&ttttttt==tttttttttttttttttr>==7ttttttttttttttte==ttttttt+.yy",
"yy.%ttttttt==ttttttttttttttttr>=-wttttttttttttttt7-==ttttttt+.yy",
"yy.%ttttttt==tttttttttttttttr>=-wttttttttttttttt4=-==ttttttt+.yy",
"yy.%ttttttt-=rtttttttttttttt1=-wttttttttttttttt4=:w>=0tttttt#.yy",
"yy.%ttttttt,=0ttttttttttttt7==wttttttttttttttt7==0t1=7tttttt%.yy",
"y..%ttttttt,=7tttttttttttt7-=0ttttttttttttttt7==4tt5=5tttttt%.yy",
"y .<ttttttt5=5ttttttttttr,==9tttttttttttttttw-=4ttt5=5tttttt&..y",
"y .<ttttttt5=5tttttttttr>==9tttttttttttttttr-=,tttt5=5tttttt<. y",
"y .<ttttttt4=5ttttttttt1=2ttttttttttttttttt,=>rtttt>=9tttttt8..y",
"y .<ttttttt,=0tttttttt4=,ttttttttttttttttt6=:wtttt9==rttttttt..y",
"y..<ttttttt,=0tttttttw-=9tttttttttttttttr6=-ettttt2=,tttttttto.y",
"y..qttttttt,=0tttttte:=>tttttttttttttttw>=-wtttttt,=5tttttttt+.y",
"y.Xtttttttt,=0tttttw-=>rtttttttttttttt0-=-ettttttt,=5tttttttt#.y",
"..#tttttttt,=0tttt9-=5rtttttttttttttt9==>rtttttttt4=4tttttttt%.y",
" .;tttttttt1=9ttt6=-7tttttttttttttttw-=2rttttttttt0=,tttttttt%.y",
" .<tttttttt5=5tt2=-wtttttttttttttttt>=2ttttttttttte=-tttttttt%.y",
" .<tttttttt5=5t2==7tttttttttttttttt2=2ttttttttttttt==tttttttt@.y",
" .&tttttttt5=41==7tttttttttttttttt2=:tttttttttttttt==tttttttt+.y",
"y.#tttttttt,====7tttttttttttttttt2==9tttttttttttttt==tttttttt+.y",
"y.Otttttttt>==-wtttttttttttttttt5==4ttttttttttttttr=-tttttttt..y",
"y..tttttttt==-wtttttttttttttttr>=-9ttttttttttttttt0=,tttttttt..y",
"y..3ttttttt==wtttttttttttttttw-=,rtttttttttttttttt0=,tttttttt..y",
"y .<ttttttt==tttttttttttttttw-=2tttttttttttttttttt0=,tttttttt..y",
"y .<ttttttt==ttttttttttttttr-=>rtttttttttttttttttt6=5tttttttt..y",
"y .<ttttttt==tttttttttttttr>=>rttttttttttttttttttt7=,tttttttt..y",
"y .<ttttttt==ttttttttttttt>=-wtttttttttttttttttttt0=,tttttttt..y",
"y .<ttttttt==tttttttttttt2=:wttttttttttttttttttttt0=:tttttttt..y",
"y .<ttttttt==ttttttttttt7=>etttttttttttttttttttttte==ttttttt3..y",
"y .;ttttttt==tttttttttt7=-wtttttttttttttttttttttttt==ttttttt<. y",
"y .$ttttttt==ttttttttt6==5ttttttttttttttttttttttttt==ttttttt<. y",
"yy.+ttttttt====,,,554:==>007,-======>,,,,,,:=========ttttttt;. y",
"yy.+ttttttt:========================================-ttttttt%.yy",
"yy.#ttttttttttt006,,,505,,,,47ettttr0000000etttttttttttttttt%.yy",
"y .%tttttttttttttttttttttttttttttttttttttttttttttttttttttttt%.yy",
"y .%tttttttttttttttttttttttttttttttttttttttttttttttttttttttt%.yy",
"yy.%tttttttttttttttttttttttttttttttttttttttttttttttttttttttt*. y",
"yy.%ttttttttttttttttttttttttttttttttttttttttttttttttttttttttq..y",
"yy.@ttttttttttttttttttttttttttttttttttttttttttttttttttttttttt..y",
"yy.+ttttttttttttttttttttttttttttttttttttttttttttttttttttttttt..y",
"yy.$tttttqtttttttttttttttttttttttttttttttttttttttttttt<<<<<<t..y",
"y .o++o....X++%%<<<<<<&%%%++++++++............o+++++...........y",
"y....... .............................................      ...y",
"yyyyyyyyyyyyyy.        yyyyyyyyyyyyyyyyyyyyyyyyyyyyyyyyyyyyyyyyy"
};
